<svg width="661" height="640" viewBox="0 0 661 640" fill="none" xmlns="http://www.w3.org/2000/svg">
<path d="M134.53 214.48C134.53 210.84 136.97 208.37 140.57 208.37C146.48 208.37 150.61 211.5 156.26 216.08C156.38 216.13 156.49 216.17 156.61 216.22C157.36 216.53 157.92 217.06 158.28 217.71C158.85 218.17 159.43 218.64 160.04 219.13C160.75 219.69 161.35 220.42 161.35 221.25C161.35 221.53 161.28 221.82 161.13 222.11C159.41 225.43 159.53 224.99 154 225.41C133.52 223.56 134.53 214.75 134.53 214.48ZM142.55 376.4C139.99 376.4 140.52 372.48 137.1 372.48C131.67 372.48 128.32 379.22 120.02 379.22C113.89 379.22 111.62 373.63 107.61 373.63C104.38 373.63 99.1 378.76 93.79 378.76C88.86 378.76 85.68 374.76 81.45 374.76C77.8 374.76 78.15 378.88 75.81 378.88C74.18 378.88 73.56 377.29 73.56 376.57C73.56 374.96 76.09 370.31 82.53 370.31H82.63C89.23 370.87 89.71 373.93 93.84 373.93C98.66 373.93 101.99 368.92 107.57 368.92C113.79 368.92 116.1 374.48 120.13 374.48C126.37 374.48 130.02 367.76 136.86 367.76C140.73 367.76 144.82 370.2 144.82 373.99C144.82 376.16 142.92 376.4 142.56 376.4M201.49 127.53C210.16 127.53 212.48 140.89 215.07 146.88C215.23 147.26 215.3 147.6 215.3 147.93C215.3 148.87 214.7 149.61 214.08 150.35C213.55 150.98 212.93 151.31 212.21 151.31C210.88 151.31 207.83 149.29 207.61 149.15C197.25 142.31 196.91 141.26 195.04 135.42C195.54 127.54 200.68 127.54 201.48 127.54M405.08 142.25C407.67 142.25 412.17 143.35 412.17 148.35C412.17 159.47 395.75 163.82 390.17 164.15C388.23 164.13 386.61 162.23 386.61 160.28C386.61 157.77 394.92 142.26 405.08 142.26M466.25 317.56C466.33 317.44 466.39 317.33 466.47 317.21C466.44 317.02 466.42 316.81 466.42 316.58C466.42 314.6 468.46 306.08 480.43 305.42C486.48 306.18 485.16 306.1 485.79 306.1C490.38 306.1 492.96 295.15 500.14 295.15C503.58 295.15 506.07 297.4 508.01 297.4C512.46 297.4 515.35 286.38 521.83 286.38C523.5 286.38 525.36 287.39 526.57 288.55C528.49 289.04 529.12 290.95 529.12 291.95C529.12 295.09 525.69 295.37 524.16 295.81C523.77 295.69 523.43 295.64 523.12 295.64C520.19 295.64 517.38 304.68 507.58 304.68C506.74 304.68 506.24 304.61 506.08 304.61C505.92 304.61 505.78 304.63 505.63 304.63C505.54 304.63 505.33 304.61 504.95 304.61C495.82 304.61 497.68 314.89 483.72 314.89C483.58 314.89 483.53 314.89 483.33 314.89C473.95 314.89 476.53 315.7 471.92 321.59C471.17 322.54 470.19 323.02 469.18 323.02C467.41 323.02 465.7 321.51 465.7 319.48C465.7 318.83 465.88 318.16 466.26 317.55M132.99 268.35C134.22 268.35 134.86 267.68 135.88 267.68C136.9 267.68 137.99 268.54 138.16 269.69C138.72 269.1 139.24 268.78 139.68 268.78C141.5 268.78 143.08 270.23 143.08 272.19C143.08 273.71 115.79 336.42 115.75 336.51C114.96 338.27 113.96 338.93 112.23 338.93C111.68 338.93 111.18 338.85 110.48 338.85C109.78 338.85 108.97 338.99 106.79 338.99C88.34 338.99 69.48 328.24 63.93 325.37C26.98 411.71 32.96 399.3 26.98 440.42V448.15C31.34 467.26 27.66 504.09 74.51 531.01C74.35 528.4 74.25 525.71 74.25 522.93C74.25 506.14 84.07 407.02 198.34 385.19C198.34 384.87 198.36 384.56 198.36 384.26C198.36 383.71 199.18 389.53 179.68 260.16C179.68 259.83 179.68 259.49 179.68 259.16C179.68 256.39 179.6 253.61 179.6 250.83C179.6 195.67 225.45 144.02 292.34 144.02C323.57 144.02 382.2 160.71 402.67 223.16C403.41 225.42 431.46 374.87 431.88 377.74C447.19 385.99 441.53 383.17 496.34 423.04C520.28 361.07 556.74 313.81 570.5 296.17C569.93 295.11 554.68 270.38 554.68 243.42C554.68 233.73 558.85 230.18 561.5 230.18C567.74 230.18 571.64 245.88 577.11 254.95C581.98 251.35 589.36 243.35 597.97 234.57C593.11 225 587.68 215.81 580.89 207.44C553.33 220.02 519.6 237.65 516.56 237.65C515.98 237.65 515.38 237.53 514.77 237.25C508.1 234.25 468.37 214.54 468.37 163.52C468.37 140.17 477.14 125.61 477.14 123.54C477.14 123.14 462.37 91.6395 430.56 66.6995C383.46 29.7595 364.1 25.7695 336.86 23.0195C319.25 93.5495 266.97 109.4 248.51 109.4C230.05 109.4 230.88 107.59 203.06 67.1795C202.54 66.4295 202.3 65.6595 202.3 64.9295C202.3 62.9995 204.08 61.5795 205.72 61.5795C205.96 61.5795 206.19 61.6195 206.4 61.6595C207.21 60.5395 208.73 59.7395 209.8 59.7395C210.3 59.7395 211.87 60.1095 214.73 60.1095C221.88 60.1095 228.45 57.5795 234.71 53.9795C245.92 47.5495 253.61 39.1895 259 30.9795C237.86 34.8995 111.02 66.0895 83.11 239.73C95.41 256.15 115.69 268.35 132.95 268.35" fill="#DBDBDB"/>
<path d="M79.68 529.73V527.67C79.68 523.3 79.67 521.04 79.65 519.22C79.58 520.91 79.54 522.61 79.54 524.32C79.54 526.15 79.59 527.95 79.68 529.73Z" fill="#5FC690"/>
<path d="M131.71 274.629C131.85 274.299 132 273.969 132.14 273.629C131.9 273.599 131.66 273.559 131.42 273.529C131.56 273.919 131.65 274.289 131.71 274.619" fill="#5FC690"/>
<path d="M384.35 299.82C383.98 298.23 383.33 295.81 383.33 295C383.33 293.49 384.58 292.58 385.74 292.58C387.95 292.58 388.16 294.95 389.06 297.61C395.16 294.93 396.04 291.04 396.04 286.73C396.04 285.08 386.53 216.24 371.31 216.24C358.64 216.24 359.82 224.52 359.82 234.84C359.82 244.33 373.91 302.21 373.93 302.3C377.41 301.47 380.73 300.68 384.35 299.82ZM498.94 432.04C496.04 440.06 488.38 463.75 488.38 486.3C488.38 520.99 502.75 519.82 503.48 519.82C511.3 519.82 527.64 509.67 527.64 485.03C527.64 454.39 499.5 432.27 498.93 432.03M628.83 216.32C628.83 215.83 628.72 215.31 628.44 214.75C612.27 223.61 585.29 259.98 576.81 259.98C572.16 259.98 570.98 251.74 563.03 237.04C562.78 236.58 562.33 236.23 561.83 235.68C560.1 238.6 560.1 241.21 560.1 242.73C560.1 266.81 571.07 286.92 574.39 293.37C575 294.55 575.76 295.18 577.06 295.53C617.16 306.22 614.28 305.86 615.73 305.86C618.2 305.86 619.79 303.42 620.47 302.11C640.74 263.01 641.98 271.25 654.96 250.03C655.33 249.42 655.46 248.66 655.81 247.67C646.78 249.77 632.9 264.95 627.97 264.95C626.78 264.95 624.56 263.99 624.56 261.71C624.56 256.57 643.85 232.54 643.85 227.49C643.85 227.26 643.76 227.02 643.52 226.77C632.1 231.25 619.46 251.59 612.62 251.59C610.89 251.59 609.63 250.25 609.63 248.55C609.63 244.8 621.18 231.28 623.41 227.57C623.96 226.65 628.82 218.31 628.82 216.32M356.2 244.82C354.06 245.17 349.85 246.54 343.23 246.54C315.84 246.54 305.18 223.93 281.88 223.93C277.61 223.93 275.82 225.07 267.33 225.07C245.54 225.07 235.28 209.4 231.02 204.12C202.99 229.37 202.63 269.95 202.63 279.33C202.63 309.14 211.65 334.58 215.08 343.94C216.11 346.75 217.63 346.69 222.6 346.69C232.03 346.69 244.69 343.66 246.64 343.66C248.9 343.66 246.98 338.19 266.15 411.85C267.52 417.13 284.82 423.42 305.64 423.42C330.02 423.42 365.08 414.84 388.96 390.72C384.79 375.81 356.21 244.9 356.19 244.81M395.71 391.61C388.94 435.97 334.34 444.48 316.27 444.48C267.11 444.48 262.29 416.01 259.4 405.61C243.51 407.95 207.51 414.11 205.83 414.11C202.85 414.11 203.28 414.11 199.67 390.42C140.17 399.19 79.53 452.42 79.53 524.31C79.53 558 94.66 582.8 103.45 591.9C150.16 640.24 126.33 633.8 294.06 633.8C294.72 633.8 295.39 633.73 296.1 633.7C296.26 633.01 296.42 633.52 296.42 626.84C296.42 521.94 166.02 457.11 166.02 454.48C166.02 454.13 166.26 452.13 168.35 452.13C182.09 452.13 271.84 515.75 299.31 592.6C301.08 592.83 316.52 592.85 316.61 592.85C323.44 592.85 357.03 592.58 361.8 592.58C367.05 592.58 368.27 593.9 368.27 595.47C368.27 597.5 341.55 638.58 338.83 638.58C338.28 638.58 336.55 638.38 333.53 638.38C326.73 638.38 324.62 639.24 321.51 639.24C-20.95 639.24 7.97 637.09 7.97 633.24C7.97 628.91 41.14 596.72 41.14 593.17C41.14 593.07 41.14 593.04 41.14 592.97C41.14 592.9 41.01 590.98 44.34 590.98C44.43 590.98 92.73 591.36 94.03 591.36C94.5 591.36 94.97 591.3 95.69 591.26C92.16 585.24 74.63 562.25 74.63 523.22C74.63 506.44 84.45 407.33 198.73 385.5C198.73 385.18 198.75 384.87 198.75 384.57C198.75 384.02 199.57 389.84 180.07 260.49C180.07 260.16 180.07 259.82 180.07 259.49C180.07 256.72 179.99 253.94 179.99 251.17C179.99 196.02 225.84 144.37 292.74 144.37C323.97 144.37 382.62 161.06 403.08 223.5C403.82 225.76 431.87 375.18 432.29 378.05C447.61 386.3 441.94 383.48 496.76 423.34C520.7 361.38 557.17 314.13 570.93 296.48C570.36 295.42 555.11 270.69 555.11 243.74C555.11 234.05 559.28 230.51 561.94 230.51C568.18 230.51 572.08 246.2 577.55 255.28C586.95 248.34 605.72 224.99 624.6 211.26C624.85 211.08 626.62 209.93 628.56 209.93C632.12 209.93 633.72 213 633.72 215.87C633.72 223.05 624.05 234.76 621.69 238.63C626.69 233.76 637.77 221.44 644.74 221.44C646.2 221.44 648.76 222.21 648.76 226.6C648.76 232.98 641.28 242.63 631.89 256.56C632 256.69 632.12 256.83 632.23 256.96C640.6 251.26 649.78 242.76 656.25 242.76C658.87 242.76 660.7 244.67 660.7 247.46C660.7 256.38 639.21 274.57 629.46 295.15C621.2 312.6 620.55 307.38 620.55 311.08C620.55 313.7 623.68 320.72 623.68 384.75C623.68 553.95 583.58 588.73 572.34 588.73C570.09 588.73 569.71 586.27 569.71 585.85C569.71 577.49 618.87 594.05 618.87 379.33C618.87 363.54 617.8 334.33 617.69 333.31C605.5 330.64 603.59 330.72 603.59 328.38C603.59 327.92 603.81 326.11 606.08 326.11C607.4 326.11 615.01 328.01 617.6 328.32C617.33 322.54 616.34 316.95 616.06 311.29C613.21 310.38 576.16 300.28 575.36 300.28C573.7 300.28 574.04 300.44 564.47 313.04C572.43 316.91 578.98 317.18 578.98 320.22C578.98 320.96 578.47 322.5 576.63 322.5C575.08 322.5 566.59 318.77 561.37 317.24C536.59 351.18 515.9 387.32 500.71 426.69C511.37 436.67 532.52 456.02 532.52 485.44C532.52 508.89 516.83 524.78 503.58 524.78C484.04 524.78 483.47 492.78 483.47 486.26C483.47 462.88 490.57 442.15 494.92 428.37C492.27 426.11 448.98 394 433.6 383.93C433 383.54 432.42 383.37 431.78 383.37C431.47 383.37 397.66 391.07 395.69 391.63" fill="black"/>
<path d="M67.08 208.09C66.99 208.13 4.97 241.43 4.97 243.47C4.97 269.47 44.87 319.05 107.94 329.76C116.06 310.93 124.07 292.37 132.15 273.64C78.59 266.92 68.75 221.52 67.09 208.09M109.03 334.59C108.8 334.59 108.54 334.59 108.26 334.58C53.06 329.72 0 274.82 0 243.09C0 240.87 1.16 238.9 3.17 237.79C74.71 198.13 70.21 200.44 71.5 200.44C72.79 200.44 73.83 201.44 73.83 202.63C73.83 203.82 72.3 205.21 72.3 210.11C72.3 239.16 106.51 268.68 133.38 268.68C134.61 268.68 135.25 268.01 136.27 268.01C137.39 268.01 138.59 269.03 138.59 270.34C138.59 271.33 112.67 334.59 109.03 334.59Z" fill="black"/>
<path d="M480.36 160.21C480.36 189.25 495.69 214.06 517.08 227.88C541.55 216.81 565.89 205.79 590.52 194.65C589.48 193.88 559.04 176.28 559.04 127.91C559.04 116.7 560.84 109.2 561.69 104.08C536.95 110.69 512.57 117.19 488.35 123.66C482.82 136.23 480.35 148.56 480.35 160.21M475.32 160.14C475.59 139.61 482.69 124.74 484.41 120.7C485.28 118.65 565.31 98.0898 565.4 98.0898C566.73 98.0898 567.69 99.0598 567.69 100.49C567.69 101.92 563.94 112.58 563.94 127.92C563.94 180.28 598.05 191.09 598.05 194.72C598.05 196.22 597.15 197.01 595.88 197.58C573.63 207.57 517.69 233.17 516.92 233.17C516.06 233.17 479.39 215.86 475.32 160.13" fill="black"/>
<path d="M275.95 5.30977C275.02 8.48977 273.55 18.3198 265.06 31.6198C242.69 66.6598 213.96 65.5298 213.44 65.6498C214.42 67.0198 236.25 96.1798 237.34 96.3898C243.15 97.5198 246.43 98.3498 251.7 98.3498C297.94 98.3498 326.61 32.4798 328.4 21.2398C310.91 15.9298 293.54 10.6498 275.96 5.30977M251.01 103.34C242.7 103.16 239.82 101.77 238.01 101.77C237.14 101.77 236.99 101.97 236.31 101.97C233.5 101.97 206.26 64.1498 206.26 63.5598C206.26 61.6998 208.7 60.0998 210.22 60.0998C210.72 60.0998 212.29 60.4698 215.15 60.4698C222.3 60.4698 228.87 57.9398 235.14 54.3498C265.96 36.6598 270.23 4.46977 273.15 0.709766C273.55 0.189766 274.08 0.00976562 274.65 0.00976562C274.74 0.00976562 334 16.5698 334 19.7698C334 23.1598 307.57 102.78 251.01 103.35" fill="black"/>
<path d="M393.01 524.79C389.58 522.42 371.7 507.25 359.84 507.25C355.67 507.25 353.27 508.98 353.27 514.34C353.27 533.9 384.3 567 394.17 573.86C421.87 555.98 438.57 527.37 438.57 512.05C438.57 502.14 432.04 502.06 429.55 502.06C416.97 502.06 401.59 516.63 393.01 524.78M398.29 577.1C400.45 579.41 416.46 590.6 425.75 590.6C428.35 590.6 429.35 589.72 430.52 589.72C432.69 589.72 432.94 591.77 432.94 592.14C432.94 595.23 426.38 595.48 425.61 595.48C401.25 595.48 348.48 542.15 348.48 514.38C348.48 509.62 350.07 502.45 359.65 502.45C373.1 502.45 390.95 517.15 392.64 518.4C395.94 515.29 413.96 497.17 430.03 497.17C432.07 497.17 443.45 497.62 443.45 511.85C443.45 524.62 431.11 555.29 398.3 577.11" fill="black"/>
<path d="M82.91 370.619H83.01C89.61 371.179 90.09 374.239 94.22 374.239C99.04 374.239 102.37 369.229 107.95 369.229C114.17 369.229 116.48 374.789 120.51 374.789C126.75 374.789 130.4 368.069 137.24 368.069C141.11 368.069 145.21 370.509 145.21 374.299C145.21 376.469 143.31 376.709 142.95 376.709C140.39 376.709 140.92 372.789 137.49 372.789C132.06 372.789 128.7 379.529 120.41 379.529C114.28 379.529 112.01 373.939 108 373.939C104.77 373.939 99.49 379.069 94.18 379.069C89.25 379.069 86.07 375.079 81.84 375.079C78.19 375.079 78.54 379.199 76.2 379.199C74.57 379.199 73.95 377.609 73.95 376.889C73.95 375.279 76.48 370.629 82.92 370.629" fill="black"/>
<path d="M480.84 305.76C486.89 306.52 485.57 306.44 486.2 306.44C490.8 306.44 493.37 295.49 500.55 295.49C503.99 295.49 506.48 297.74 508.42 297.74C512.87 297.74 515.76 286.72 522.24 286.72C525.02 286.72 528.31 289.5 528.31 291.14C528.31 291.62 527.9 293.37 526.12 293.37C524.34 293.37 523.36 291.57 522.14 291.57C519.09 291.57 515.84 302.45 508.64 302.45C505.02 302.45 502.76 300.23 500.57 300.23C496.48 300.23 493.83 311.21 486.42 311.21C484.51 311.21 482.9 310.52 480.24 310.52C479.27 310.52 478.29 310.63 477.31 310.91C469.3 313.23 472.38 319.43 468.95 319.43C468.61 319.43 466.82 319.27 466.82 316.92C466.82 314.94 468.86 306.43 480.83 305.77" fill="black"/>
<path d="M392.2 159.229C395.63 158.889 398.23 157.749 400.85 156.659C406.23 154.419 407.7 149.679 407.7 148.759C407.7 147.989 407.12 147.479 405.31 147.479C400.13 147.479 394.31 156.009 392.2 159.229ZM390.6 164.499C388.66 164.479 387.04 162.579 387.04 160.629C387.04 158.119 395.35 142.609 405.51 142.609C408.1 142.609 412.6 143.699 412.6 148.709C412.6 159.819 396.18 164.179 390.6 164.509" fill="black"/>
<path d="M153.96 221.08C154.06 221.08 154.18 220.95 154.55 220.72C152.84 219.45 146.52 213.7 141.39 213.7C140.91 213.7 140.27 213.89 140.15 214.16C140.07 214.36 140.03 214.61 140.03 214.87C140.03 218.71 151.66 221.08 153.96 221.08ZM154.39 225.75C133.91 223.9 134.92 215.09 134.92 214.83C134.92 211.19 137.36 208.72 140.96 208.72C148.11 208.72 152.66 213.29 160.43 219.48C161.14 220.04 161.74 220.77 161.74 221.6C161.74 221.88 161.67 222.17 161.52 222.46C159.8 225.78 159.92 225.34 154.39 225.76" fill="black"/>
<path d="M209.33 144.2C206.68 133.82 202.3 132.84 202.02 132.84C200.57 132.84 200.45 134.93 200.45 135.2C200.45 139.51 208.59 143.77 209.32 144.21M195.44 135.77C195.94 127.89 201.08 127.89 201.88 127.89C210.55 127.89 212.87 141.24 215.46 147.24C215.62 147.62 215.69 147.96 215.69 148.29C215.69 149.23 215.09 149.97 214.47 150.71C213.94 151.34 213.32 151.67 212.61 151.67C211.28 151.67 208.23 149.65 208.01 149.51C197.65 142.67 197.31 141.62 195.44 135.78" fill="black"/>
<path d="M297.78 328.07C297.49 319.71 292.32 318.57 291.34 318.57C288.38 318.57 287.01 322.02 287.01 324.93C287.01 329.12 290.16 333.72 293.47 333.72C297.11 333.72 297.59 328.89 297.78 328.07ZM282.17 325.89C282.17 313.48 291.09 313.64 291.3 313.64C292.96 313.64 302.61 315.56 302.61 328C302.61 331.48 300.39 338.61 293.48 338.61C284.61 338.61 282.16 328.02 282.16 325.89" fill="black"/>
<path d="M253.73 247.01C254.95 247.01 256.02 248.06 256.02 249.55C256.02 249.63 256.02 249.71 256.02 249.79C255.91 250.03 255.8 250.57 255.49 250.91C243.14 264.47 243.45 264.31 242.01 264.31C240.8 264.31 239.7 263.16 239.7 262.02C239.7 261.47 239.9 260.75 241.2 259.33C251.98 247.54 252.26 247.01 253.75 247.01" fill="black"/>
<path d="M304.47 248.93C304.47 248.93 304.41 248.93 304.38 248.93C287.8 245.33 287.07 244.91 287.07 242.84C287.07 242.39 287.4 240.46 289.49 240.46C290.02 240.46 290.57 240.58 291.09 240.71C305.48 244.16 307.16 244.07 307.16 246.53C307.16 248.39 305.45 248.94 304.47 248.94" fill="black"/>
<path d="M256.03 278.089C256.03 276.649 256.97 275.609 258.43 275.609C259.48 275.609 260.36 276.149 260.74 277.339C260.77 277.429 263.58 286.439 263.58 287.519C263.58 289.309 261.97 289.869 261.19 289.869C260.23 289.869 259.36 289.239 258.88 288.089C258.84 287.999 256.02 279.209 256.02 278.079" fill="black"/>
<path d="M259.71 302.339C259.41 302.229 258.84 302.119 258.37 301.839C251.19 297.489 250.29 297.059 250.29 295.399C250.29 294.089 251.34 292.979 252.65 292.979C253.04 292.979 253.44 293.079 253.82 293.299C262.83 298.469 262.3 298.939 262.3 299.859C262.3 299.949 262.36 302.139 259.71 302.339Z" fill="black"/>
<path d="M291.96 269.559C291.98 268.609 292.49 266.979 294.35 266.979C295.2 266.979 295.96 267.429 296.45 268.269C296.84 268.949 299.02 276.529 299.02 277.509C299.02 279.079 297.84 279.979 296.66 279.979C295.82 279.979 295.05 279.519 294.55 278.669C294.15 277.989 292.17 270.809 291.96 269.559Z" fill="black"/>
<path d="M306.25 289.04C304.62 288.98 303.55 287.89 303.55 286.66C303.55 286.03 303.71 285.05 308.09 279.81C308.54 279.28 309.14 279.04 309.75 279.04C310.85 279.04 312.24 279.94 312.24 281.42C312.24 281.85 312.11 282.3 311.83 282.73C307.42 289.45 307.17 288.57 306.26 289.04" fill="black"/>
<path d="M379.39 266.629C387.38 267.309 387.84 281.349 387.84 282.499C387.84 283.979 386.89 285.279 385.4 285.279C380.93 285.279 384.38 276.939 379.97 271.909C378.83 272.689 378.1 273.289 377.08 273.289C376 273.289 375.18 272.459 374.92 270.889C374.57 268.799 371.27 240.359 371.27 239.799C371.27 237.629 372.92 237.069 373.7 237.069C377.81 237.069 375.85 244.789 379.39 266.629Z" fill="black"/>
<path d="M48.35 250.609C53.6 253.249 56.94 253.789 57.99 253.789C59.57 253.789 60.46 253.369 60.46 252.089C60.46 249.369 58.06 247.159 54.11 247.159C52.19 247.159 48.38 248.019 48.35 250.609ZM58.68 258.459C56.82 258.459 54.92 258.089 52.6 257.859C63.46 267.539 74.23 272.449 74.23 275.109C74.23 276.319 73.14 277.459 72.99 277.679C79.92 278.889 82.63 278.789 82.63 281.569C82.63 282.269 82.35 283.049 81.72 283.849C91.39 290.539 97.88 291.279 98.35 293.129C99.48 297.609 100.31 297.899 100.31 298.699C100.31 299.629 99.23 300.499 98.07 300.499C93.84 300.499 93.61 295.829 93.56 295.549C80.09 289.749 77.65 287.559 76.48 283.199C74.05 282.679 64.66 281.249 64.66 277.089C64.66 276.219 65.02 275.219 65.71 274.029C50.18 262.759 46.78 259.719 44.28 254.379C43.45 252.609 35.75 249.129 35.75 246.059C35.75 244.889 36.8 244.039 37.74 244.039C39.32 244.039 39.95 245.909 43.71 248.249C44.43 247.209 46.72 242.439 54.19 242.439C59.29 242.439 65.23 245.539 65.23 252.209C65.23 254.049 64.11 258.479 58.69 258.479" fill="black"/>
<path d="M507.41 168.29C507.41 167.18 507.33 166.05 507.14 164.9C505.54 166.46 504.68 169.41 504.68 172.11C504.68 174 505.1 175.77 505.98 176.85C506.82 174.02 507.41 171.23 507.41 168.29ZM537.36 172.26C536.59 172.26 535.76 171.99 534.86 171.4C533.14 173.56 531.8 176.05 528.9 176.05C528.54 176.05 528.15 176.01 527.73 175.93C526.69 177.4 525.52 179.46 523.61 179.46C521.84 179.46 521 177.73 520.15 176.42C516.99 180 513.75 183.38 508.53 183.38C508.47 183.38 508.41 183.38 508.35 183.38C506.67 186.7 506.22 188.2 504.68 188.2C504.35 188.2 502.6 188 502.6 186.06C502.6 185.14 502.9 184.82 503.95 182.35C503.52 181.17 499.94 179.55 499.94 172.78C499.94 166.42 502.5 159.96 507.1 159.96C512.45 159.96 512.18 167.5 512.18 168.17C512.18 172.21 511.1 175.7 510.43 178.15C514.65 177.79 519.22 167.91 522.22 167.91C523.6 167.91 524.35 169.29 524.99 170.39C525.72 170.15 526.44 169.73 527.16 169.73C527.88 169.73 528.64 170.15 529.67 170.48C532.63 165.82 533.05 164.29 534.79 164.29C536.38 164.29 537.52 166.25 537.9 166.79C542.97 161.06 542.9 160.58 544.27 160.58C545.11 160.58 546.55 161.28 546.55 162.85C546.55 164.08 545.37 165.37 545.34 165.41C540.18 171.24 539.28 172.27 537.37 172.27" fill="black"/>
<path d="M252.41 68.6697C254.53 68.3397 255.35 67.9697 255.35 67.0197C255.35 66.6897 255.26 66.2997 255.09 65.8197C253.91 66.5097 252.89 67.2297 252.42 68.6697M260.2 64.3097C271.68 54.5797 271.82 54.0897 273.69 54.0897C274.17 54.0897 274.68 54.1897 275.23 54.4297C277.99 48.9797 278.36 47.2597 280.18 47.2597C280.79 47.2597 281.43 47.5497 282.09 48.1197C282.35 48.3397 282.47 48.7197 282.73 49.1497C292.82 38.7297 286.14 40.5297 293.82 30.2697C294.23 29.7197 294.77 29.4697 295.36 29.4697C296.44 29.4697 297.75 30.3297 297.75 31.7697C297.75 33.9997 295.08 35.1497 294.36 38.6997C292.85 46.2097 285.78 54.3197 282.38 54.3197C281.92 54.3197 281.43 54.2397 280.93 54.0497C278.16 58.4397 277.25 60.3797 274.97 60.3797C274.33 60.3797 273.57 60.2297 272.62 59.9497C266.89 64.8297 265.42 65.8297 260.82 69.7197C258.24 71.8997 255.96 78.5297 251.84 78.5297C248.94 78.5297 248.21 75.4397 248.21 74.8597C248.21 74.1697 248.48 73.4997 248.93 72.8097C247.91 71.6497 247.38 70.4097 247.38 69.1097C247.38 65.7997 251.55 60.9397 255.59 60.9397C258.08 60.9397 259.28 63.0597 260.2 64.3097Z" fill="black"/>
<path d="M429.55 502.069C416.97 502.069 401.59 516.639 393.01 524.789C389.58 522.419 371.7 507.249 359.84 507.249C355.67 507.249 353.27 508.979 353.27 514.339C353.27 533.899 384.31 566.999 394.17 573.859C403.67 567.729 411.89 560.329 418.57 552.629C418.59 552.609 418.61 552.579 418.63 552.559C419.1 552.019 419.56 551.469 420.01 550.929C420.19 550.709 420.38 550.489 420.56 550.269C432.1 536.249 438.56 521.579 438.56 512.059C438.56 502.539 432.03 502.069 429.54 502.069" fill="#DBDBDB"/>
</svg>
